                                        <svg id="Component_9_2" data-name="Component 9 – 2" xmlns="http://www.w3.org/2000/svg" xmlns:xlink="http://www.w3.org/1999/xlink" width="50" height="50" viewBox="0 0 50 50">
                                            <defs>
                                              <clipPath id="clip-path">
                                                <rect id="Rectangle_55" data-name="Rectangle 55" width="50" height="50" fill="none"/>
                                              </clipPath>
                                            </defs>
                                            <g id="Group_48" data-name="Group 48">
                                              <g id="Group_48-2" data-name="Group 48" clip-path="url(#clip-path)">
                                                <path id="Path_122" data-name="Path 122" d="M112.688,92.412H97.941a5.531,5.531,0,0,0-5.53,5.53v14.747a5.531,5.531,0,0,0,5.53,5.53h14.747a5.531,5.531,0,0,0,5.53-5.53V97.942a5.531,5.531,0,0,0-5.53-5.53m-7.374,22.121a9.217,9.217,0,1,1,9.217-9.217,9.217,9.217,0,0,1-9.217,9.217m9.217-16.59a1.843,1.843,0,1,1,1.843-1.843,1.843,1.843,0,0,1-1.843,1.843" transform="translate(-81.581 -81.582)" fill="#ffa600"/>
                                                <path id="Path_123" data-name="Path 123" d="M160.861,155.332a5.53,5.53,0,1,0,5.53,5.53,5.531,5.531,0,0,0-5.53-5.53" transform="translate(-137.128 -137.129)" fill="#ffa600"/>
                                                <path id="Path_124" data-name="Path 124" d="M0,0V50H35.254L50,37.894V0ZM40.324,31.107a9.228,9.228,0,0,1-9.217,9.217H16.36a9.228,9.228,0,0,1-9.217-9.217V16.36A9.227,9.227,0,0,1,16.36,7.143H31.107a9.227,9.227,0,0,1,9.217,9.217Z" fill="#ffa600"/>
                                              </g>
                                            </g>
                                          </svg>
                                          