<svg id="Component_11_1" data-name="Component 11 – 1" xmlns="http://www.w3.org/2000/svg" xmlns:xlink="http://www.w3.org/1999/xlink" width="50.459" height="50.459" viewBox="0 0 50.459 50.459">
                                            <defs>
                                              <clipPath id="clip-path">
                                                <rect id="Rectangle_57" data-name="Rectangle 57" width="50.459" height="50.459" fill="none"/>
                                              </clipPath>
                                            </defs>
                                            <g id="Group_52" data-name="Group 52">
                                              <g id="Group_51" data-name="Group 51" clip-path="url(#clip-path)">
                                                <path id="Path_127" data-name="Path 127" d="M0,0V50.459H35.578L50.459,38.242V0ZM37.875,33.479a8.087,8.087,0,0,1-.428,1.4,5.465,5.465,0,0,1-2.489,2.162,7.57,7.57,0,0,1-4.865.97,8.7,8.7,0,0,1-1.173-.255c-.435-.122-.758-.221-.97-.3s-.588-.214-1.132-.419-.878-.326-1-.367a18.51,18.51,0,0,1-3.572-1.694,30.3,30.3,0,0,1-5.4-4.4,30.3,30.3,0,0,1-4.4-5.4,18.46,18.46,0,0,1-1.692-3.57c-.041-.123-.163-.455-.368-1s-.343-.922-.419-1.133-.173-.533-.3-.969a8.864,8.864,0,0,1-.254-1.173,7.751,7.751,0,0,1-.072-1.071,7.906,7.906,0,0,1,1.041-3.8,5.472,5.472,0,0,1,2.163-2.489,8.125,8.125,0,0,1,1.4-.428,6.732,6.732,0,0,1,1.438-.2,1.15,1.15,0,0,1,.428.061q.367.122,1.081,1.55.225.389.613,1.1c.259.475.5.908.714,1.3s.428.752.633,1.092q.06.082.357.511a5.645,5.645,0,0,1,.438.724,1.326,1.326,0,0,1,.143.582,1.7,1.7,0,0,1-.581,1.019,9.947,9.947,0,0,1-1.265,1.122,12.438,12.438,0,0,0-1.265,1.082,1.55,1.55,0,0,0-.581.938,1.357,1.357,0,0,0,.1.459,3.944,3.944,0,0,0,.174.419q.071.144.285.49c.143.232.221.361.234.388a21.44,21.44,0,0,0,3.55,4.794,21.431,21.431,0,0,0,4.794,3.55c.027.013.157.092.388.234s.4.239.49.286.235.105.419.174a1.393,1.393,0,0,0,.459.1,1.555,1.555,0,0,0,.939-.582,12.157,12.157,0,0,0,1.081-1.265,10.028,10.028,0,0,1,1.122-1.264,1.694,1.694,0,0,1,1.021-.582,1.321,1.321,0,0,1,.581.143,5.62,5.62,0,0,1,.725.439c.285.2.455.316.51.357q.509.305,1.092.633t1.3.713q.715.389,1.1.613,1.428.715,1.55,1.081a1.137,1.137,0,0,1,.061.429,6.742,6.742,0,0,1-.2,1.438" fill="#ffa600"/>
                                              </g>
                                            </g>
                                          </svg>  