                                        <svg id="Component_10_1" data-name="Component 10 – 1" xmlns="http://www.w3.org/2000/svg" xmlns:xlink="http://www.w3.org/1999/xlink" width="50" height="50" viewBox="0 0 50 50">
                                            <defs>
                                              <clipPath id="clip-path">
                                                <rect id="Rectangle_56" data-name="Rectangle 56" width="50" height="50" fill="none"/>
                                              </clipPath>
                                            </defs>
                                            <g id="Group_50" data-name="Group 50">
                                              <g id="Group_49" data-name="Group 49" clip-path="url(#clip-path)">
                                                <path id="Path_125" data-name="Path 125" d="M102.826,89.272a13.255,13.255,0,0,0-11.485,19.872l.687,1.193-.36,1.328-.8,2.963,3.266-.771,1.235-.292,1.118.609a13.257,13.257,0,1,0,6.335-24.9m8.112,19.172a4.179,4.179,0,0,1-2.8,1.966c-.759.07-1.47.342-4.968-1.037-4.209-1.659-6.868-5.972-7.075-6.247a8.062,8.062,0,0,1-1.691-4.284,4.628,4.628,0,0,1,1.452-3.451,1.519,1.519,0,0,1,1.105-.518c.275,0,.55,0,.79.009.3.012.623.027.934.716.368.819,1.173,2.865,1.276,3.072A.769.769,0,0,1,100,99.4a2.929,2.929,0,0,1-.415.69c-.207.243-.434.54-.619.725-.207.206-.425.434-.185.846a12.47,12.47,0,0,0,2.3,2.865,11.436,11.436,0,0,0,3.332,2.058c.415.207.655.17.9-.108s1.034-1.2,1.309-1.62.553-.346.933-.207,2.416,1.137,2.829,1.344.691.311.795.483a3.482,3.482,0,0,1-.243,1.971" transform="translate(-79.075 -78.81)" fill="#ffa600"/>
                                                <path id="Path_126" data-name="Path 126" d="M0,0V50H35.254L50,37.894V0ZM23.751,40.292h-.007a16.569,16.569,0,0,1-7.92-2.016L7.143,40.327l2.249-8.335a16.572,16.572,0,1,1,14.359,8.3" fill="#ffa600"/>
                                              </g>
                                            </g>
                                          </svg>   